<svg width="38" height="38" viewBox="0 0 38 38" fill="none" xmlns="http://www.w3.org/2000/svg">
<circle cx="19" cy="19" r="18.5" stroke="#ED5500"/>
<path d="M19.1904 24.1113H18.0332C18.043 23.3496 18.1211 22.6904 18.2676 22.1338C18.4141 21.5674 18.6582 21.04 19 20.5518C19.3418 20.0635 19.8057 19.5459 20.3916 18.999C20.958 18.4424 21.4463 17.9297 21.8564 17.4609C22.2764 16.9922 22.5986 16.4746 22.8232 15.9082C23.0479 15.332 23.1602 14.6191 23.1602 13.7695C23.1602 12.9297 23.0088 12.1875 22.7061 11.543C22.4131 10.8984 21.9688 10.3906 21.373 10.0195C20.7773 9.64844 20.0352 9.46289 19.1465 9.46289C18.2773 9.46289 17.5205 9.63867 16.876 9.99023C16.2412 10.332 15.7432 10.8203 15.3818 11.4551C15.0303 12.0801 14.8447 12.8125 14.8252 13.6523H13.6533C13.6729 12.5391 13.9316 11.5869 14.4297 10.7959C14.9277 10.0049 15.5869 9.4043 16.4072 8.99414C17.2373 8.58398 18.1504 8.37891 19.1465 8.37891C20.2695 8.37891 21.2119 8.61328 21.9736 9.08203C22.7451 9.54102 23.3311 10.1807 23.7314 11.001C24.1318 11.8115 24.332 12.7393 24.332 13.7842C24.332 14.6436 24.2051 15.4102 23.9512 16.084C23.6973 16.7578 23.3213 17.3975 22.8232 18.0029C22.335 18.5986 21.7344 19.2236 21.0215 19.8779C20.3281 20.4248 19.8496 21.0645 19.5859 21.7969C19.3223 22.5195 19.1904 23.291 19.1904 24.1113ZM17.7256 29.1504C17.7256 28.8867 17.8135 28.6621 17.9893 28.4766C18.165 28.291 18.3945 28.1982 18.6777 28.1982C18.9609 28.1982 19.1953 28.291 19.3809 28.4766C19.5664 28.6621 19.6592 28.8867 19.6592 29.1504C19.6592 29.4141 19.5664 29.6387 19.3809 29.8242C19.1953 30.0098 18.9609 30.1025 18.6777 30.1025C18.3945 30.1025 18.165 30.0098 17.9893 29.8242C17.8135 29.6387 17.7256 29.4141 17.7256 29.1504Z" fill="#ED5500"/>
</svg>
