<svg width="35" height="35" viewBox="0 0 35 35" fill="none" xmlns="http://www.w3.org/2000/svg">
<g id="SadEmoji">
<path id="Subtract" fill-rule="evenodd" clip-rule="evenodd" d="M24.4145 26.8333H10.5C10.8869 24.2084 13.8542 22.1667 17.4573 22.1667C21.0604 22.1667 24.0276 24.2084 24.4145 26.8333ZM17.4768 32.6667H17.4377C17.4442 32.6667 17.4508 32.6667 17.4573 32.6667C17.4638 32.6667 17.4703 32.6667 17.4768 32.6667Z" fill="#ED5500"/>
<circle id="Ellipse 18" cx="17.5" cy="17.5" r="16.5" stroke="#ED5500" stroke-width="2"/>
<path id="Vector 5" d="M8.2041 8.35767C9.90958 9.07111 13.3366 8.20862 14.6913 5.72777" stroke="#ED5500" stroke-width="2" stroke-linecap="round"/>
<circle id="Ellipse 22" cx="11.6667" cy="15.1667" r="4.16667" stroke="#ED5500"/>
<circle id="Ellipse 23" cx="23.3334" cy="15.1667" r="4.16667" stroke="#ED5500"/>
<circle id="Ellipse 24" cx="11.6666" cy="15.1666" r="2.33333" fill="#ED5500"/>
<circle id="Ellipse 25" cx="23.3333" cy="15.1666" r="2.33333" fill="#ED5500"/>
<path id="Vector 6" d="M20.3525 5.65851C21.0403 7.37449 24.0589 9.21203 26.7773 8.43739" stroke="#ED5500" stroke-width="2" stroke-linecap="round"/>
</g>
</svg>
