<svg width="35" height="35" viewBox="0 0 35 35" fill="none" xmlns="http://www.w3.org/2000/svg">
<ellipse cx="17.5" cy="25.0833" rx="4.66667" ry="5.25" fill="#ED5500"/>
<circle cx="17.5" cy="17.5" r="16.5" stroke="#ED5500" stroke-width="2"/>
<path d="M10.8708 10.7168L11.6813 12.2451L12.5163 10.7168H14.1178L12.6774 13.2949L14.1862 16H12.5749L11.6862 14.3691L10.8024 16H9.18619L10.695 13.2949L9.25943 10.7168H10.8708Z" fill="#ED5500"/>
<path d="M15.1667 8.16669C13.8542 6.86476 10.3542 6.37654 8.16666 8.16669" stroke="#ED5500" stroke-width="2" stroke-linecap="round"/>
<path d="M26.8333 8.16669C25.5208 6.86476 22.0208 6.37654 19.8333 8.16669" stroke="#ED5500" stroke-width="2" stroke-linecap="round"/>
<path d="M23.1208 10.7168L23.9313 12.2451L24.7663 10.7168H26.3678L24.9274 13.2949L26.4362 16H24.8249L23.9362 14.3691L23.0524 16H21.4362L22.945 13.2949L21.5094 10.7168H23.1208Z" fill="#ED5500"/>
</svg>
